<svg xmlns="http://www.w3.org/2000/svg" viewBox="0 0 1200 630" width="1200" height="630">
  <defs>
    <radialGradient id="bg" cx="50%" cy="40%" r="60%">
      <stop offset="0%" stop-color="#1a1f3a"/>
      <stop offset="100%" stop-color="#05060d"/>
    </radialGradient>
    <linearGradient id="title" x1="0" y1="0" x2="1" y2="0">
      <stop offset="0%" stop-color="#7c5cff"/>
      <stop offset="100%" stop-color="#22d3ee"/>
    </linearGradient>
    <pattern id="grid" width="48" height="48" patternUnits="userSpaceOnUse">
      <path d="M48 0H0V48" fill="none" stroke="rgba(120,140,200,0.08)" stroke-width="1"/>
    </pattern>
  </defs>
  <rect width="1200" height="630" fill="url(#bg)"/>
  <rect width="1200" height="630" fill="url(#grid)"/>

  <!-- shapes scattered -->
  <g opacity="0.85">
    <rect x="120" y="120" width="36" height="36" fill="#FACC15" stroke="#A16207" stroke-width="3" transform="rotate(18 138 138)"/>
    <rect x="980" y="160" width="36" height="36" fill="#FACC15" stroke="#A16207" stroke-width="3" transform="rotate(-25 998 178)"/>
    <rect x="1040" y="440" width="36" height="36" fill="#FACC15" stroke="#A16207" stroke-width="3" transform="rotate(45 1058 458)"/>
    <polygon points="220,440 250,500 190,500" fill="#F87171" stroke="#991B1B" stroke-width="3"/>
    <polygon points="880,500 920,560 840,560" fill="#F87171" stroke="#991B1B" stroke-width="3"/>
    <polygon points="120,520 154,540 142,576 102,576 90,540" fill="#60A5FA" stroke="#1E3A8A" stroke-width="3"/>
  </g>

  <!-- player tank -->
  <g transform="translate(600 360)">
    <rect x="0" y="-22" width="120" height="44" fill="#888EA0" stroke="#333A4E" stroke-width="4"/>
    <circle r="60" fill="#5B8CFF" stroke="#1F3A8A" stroke-width="6"/>
  </g>
  <!-- bullets -->
  <circle cx="780" cy="360" r="14" fill="#60A5FA" stroke="#1E3A8A" stroke-width="3"/>
  <circle cx="860" cy="360" r="14" fill="#60A5FA" stroke="#1E3A8A" stroke-width="3"/>

  <!-- title -->
  <text x="600" y="180" text-anchor="middle" font-family="Inter, system-ui, sans-serif" font-weight="800" font-size="110" fill="url(#title)" letter-spacing="2">ORBITAL</text>
  <text x="600" y="240" text-anchor="middle" font-family="Inter, system-ui, sans-serif" font-weight="500" font-size="32" fill="#E6E9F5" opacity="0.85">Free multiplayer tank arena · play in your browser</text>
  <text x="600" y="560" text-anchor="middle" font-family="Inter, system-ui, sans-serif" font-weight="600" font-size="24" fill="#22d3ee">orbital-production-45a9.up.railway.app</text>
</svg>
